# xmcd
#
# Track frame offsets: 
#        182
#        11405
#        19765
#        30260
#        38285
#        47012
#        55097
#        63685
#        73105
#        82425
#        92815
#
# Disc length: 1354 seconds
#
# Revision: 2
# Processed by: cddbd v1.4PL0 Copyright (c) Steve Scherf et al.
# Submitted via: ExactAudioCopy v0.90b3
#
DISCID=8705480b
DTITLE=Roger Miller - Golden Hits
DYEAR=1965
DGENRE=Country
TTITLE0=King of the Road
TTITLE1=Dang Me
TTITLE2=Engine Engine #9
TTITLE3=In the Summertime (You Don't Want My Love)
TTITLE4=You Can't Roller Skate in a Buffalo Herd
TTITLE5=(And You Had A) Do-Wacka-Do
TTITLE6=England Swings
TTITLE7=Chug-A-Lug
TTITLE8=One Dying and a Burying
TTITLE9=Kansas City Star
TTITLE10=Atta Boy Girl
EXTD=
EXTT0=
EXTT1=
EXTT2=
EXTT3=
EXTT4=
EXTT5=
EXTT6=
EXTT7=
EXTT8=
EXTT9=
EXTT10=
PLAYORDER=
